<svg width="60" height="60" viewBox="0 0 60 60" fill="none" xmlns="http://www.w3.org/2000/svg">
<rect width="60" height="60" rx="6" fill="white"/>
<path d="M16.6667 30.0002C16.6667 24.9718 16.6667 22.4577 18.2288 20.8956C19.7909 19.3335 22.305 19.3335 27.3334 19.3335H32.6667C37.695 19.3335 40.2092 19.3335 41.7712 20.8956C43.3334 22.4577 43.3334 24.9718 43.3334 30.0002C43.3334 35.0284 43.3334 37.5427 41.7712 39.1047C40.2092 40.6668 37.695 40.6668 32.6667 40.6668H27.3334C22.305 40.6668 19.7909 40.6668 18.2288 39.1047C16.6667 37.5427 16.6667 35.0284 16.6667 30.0002Z" stroke="#141B34" stroke-width="1.5" stroke-linecap="round" stroke-linejoin="round"/>
<path d="M26 30.6667C24.1591 30.6667 22.6667 29.1743 22.6667 27.3333C22.6667 25.4924 24.1591 24 26 24C27.841 24 29.3334 25.4924 29.3334 27.3333C29.3334 29.1743 27.841 30.6667 26 30.6667ZM26 30.6667C28.9455 30.6667 31.3334 33.0545 31.3334 36M26 30.6667C23.0545 30.6667 20.6667 33.0545 20.6667 36" stroke="#141B34" stroke-width="1.5" stroke-linecap="round" stroke-linejoin="round"/>
<path d="M34 26H39.3333" stroke="#141B34" stroke-width="1.5" stroke-linecap="round" stroke-linejoin="round"/>
<path d="M34 30H39.3333" stroke="#141B34" stroke-width="1.5" stroke-linecap="round" stroke-linejoin="round"/>
</svg>
