<svg width="60" height="60" viewBox="0 0 60 60" fill="none" xmlns="http://www.w3.org/2000/svg">
<rect width="60" height="60" rx="6" fill="white"/>
<path d="M16.6683 25.3335L16.6655 32.6628C16.6637 37.064 16.6629 39.2647 18.0298 40.6322C19.3967 41.9996 21.5973 41.9996 25.9986 41.9998L34 41.9999C38.3992 42 40.5986 42.0002 41.9654 40.6336C43.3322 39.2671 43.3328 37.0675 43.3336 32.6684L43.3351 25.3335" stroke="#141B34" stroke-width="1.5" stroke-linecap="round" stroke-linejoin="round"/>
<path d="M25.3314 22.6667C25.3314 20.7941 25.3314 19.8577 25.7808 19.1851C25.9753 18.894 26.2253 18.644 26.5165 18.4494C27.1891 18 28.1254 18 29.9981 18C31.8706 18 32.807 18 33.4795 18.4494C33.7707 18.644 34.0207 18.894 34.2153 19.1851C34.6647 19.8577 34.6647 20.7941 34.6647 22.6667" stroke="#141B34" stroke-width="1.5" stroke-linecap="round" stroke-linejoin="round"/>
<path d="M40.6642 22.6667L19.332 22.6665C17.8594 22.6666 16.6652 23.8607 16.665 25.3333C16.6652 28.2786 19.0536 30.667 21.9988 30.6673H37.9972C40.9426 30.6672 43.3308 28.2789 43.331 25.3336C43.3308 23.8609 42.1367 22.6668 40.6642 22.6667Z" stroke="#141B34" stroke-width="1.5" stroke-linecap="round" stroke-linejoin="round"/>
<path d="M27.3314 30.6665V31.9998C27.3314 32.6198 27.3314 32.9298 27.3995 33.1841C27.5845 33.8744 28.1235 34.4134 28.8137 34.5984C29.0681 34.6665 29.3781 34.6665 29.9981 34.6665C30.6181 34.6665 30.9279 34.6665 31.1823 34.5984C31.8725 34.4134 32.4117 33.8744 32.5966 33.1841C32.6647 32.9298 32.6647 32.6198 32.6647 31.9998V30.6665" stroke="#141B34" stroke-width="1.5" stroke-linecap="round" stroke-linejoin="round"/>
</svg>
